<?xml version="1.0" encoding="utf-8"?>
<!-- Generator: Adobe Illustrator 26.0.3, SVG Export Plug-In . SVG Version: 6.00 Build 0)  -->
<svg version="1.1" id="Capa_1" xmlns="http://www.w3.org/2000/svg" xmlns:xlink="http://www.w3.org/1999/xlink" x="0px" y="0px"
	 viewBox="0 0 51.07 42.51" style="enable-background:new 0 0 51.07 42.51;" xml:space="preserve">
<style type="text/css">
	.st0{fill:#5BD4E8;}
	.st1{fill:#FFFFFF;}
	.st2{fill:#223976;}
	.st3{fill:#868686;}
	.st4{fill:#F0FFFF;}
	.st5{fill:#0C204C;}
	.st6{fill:#0072B8;}
	.st7{fill:#2852AF;}
	.st8{fill:#2EC1D3;}
	.st9{fill:#EBBCBE;}
	.st10{fill:#E9FFED;}
	.st11{fill:#034C11;}
	.st12{fill:#FFF0F1;}
	.st13{fill:#6B030F;}
</style>
<g>
	<g>
		<path class="st3" d="M47.94,16.61c-0.08-4.25-2.74-7.17-6.94-7.62c-1.4-0.15-2.82-0.17-4.21-0.17c-0.68,0-1.34,0.01-2.01,0.01
			c-0.54,0-1.07-0.01-1.62-0.01V8.2c0-0.87,0-1.69,0-2.51c-0.02-2.15-1.1-3.24-3.22-3.25c-2.94-0.02-5.88-0.02-8.82,0
			c-2.07,0.01-3.18,1.11-3.19,3.18C17.9,6.5,17.9,7.39,17.9,8.32v0.47l-1.61-0.01c-1.73-0.01-3.4-0.01-5.08,0.02
			c-4.77,0.09-8.02,3.27-8.09,7.92c-0.08,5.08-0.07,10.29,0,15.49c0.06,4.1,2.44,6.9,6.52,7.69c0.91,0.17,1.84,0.18,2.67,0.18
			c4.41,0.01,8.82,0.01,13.22,0.01c4.41,0,8.82,0,13.22-0.01c0.58,0,1.17-0.02,1.75-0.06c4.43-0.37,7.35-3.4,7.43-7.71
			C48.03,27.24,48.03,21.96,47.94,16.61z M44.52,16.49c0.08,5.39,0.08,10.75,0,15.92c-0.04,2.3-1.44,3.81-3.84,4.15
			c-0.58,0.08-1.17,0.13-1.76,0.13c-8.94,0.01-17.88,0.01-26.82,0c-0.83,0-1.49-0.06-2.07-0.19c-2.25-0.49-3.46-1.92-3.49-4.14
			c-0.08-5.8-0.08-10.97,0-15.82c0.05-2.67,1.85-4.27,4.82-4.3c1.95-0.02,3.9-0.02,5.85-0.02c1.28,0,2.56,0,3.83,0.01l7.87,0
			c3.4,0,6.8-0.01,10.2,0.01c0.67,0,1.27,0.05,1.81,0.15C43.21,12.82,44.49,14.28,44.52,16.49z M29.77,8.8
			c-0.64-0.01-1.29-0.01-1.93-0.01c-0.4,0-0.8,0-1.21,0l-1.2,0l-1.17-0.01c-0.95-0.01-1.89-0.01-2.98,0.01
			c0.03-0.96,0.03-1.91,0.01-2.97c2.8,0.02,5.58,0.02,8.48,0.01C29.76,6.79,29.76,7.75,29.77,8.8z"/>
		<path class="st3" d="M33.78,20.72c-0.35-0.35-0.84-0.53-1.46-0.53c0,0-0.01,0-0.01,0l-0.86-0.01c-0.52-0.01-1.03-0.01-1.66,0
			c0.02-0.55,0.02-1.11,0.01-1.66L29.8,17.7c0.01-0.63-0.17-1.12-0.52-1.47c-0.34-0.34-0.82-0.51-1.42-0.51c-0.01,0-0.02,0-0.03,0
			c-1.53,0.01-3.06,0.01-4.58,0c-0.63-0.04-1.1,0.16-1.45,0.51c-0.35,0.35-0.53,0.84-0.52,1.48l-0.01,0.83
			c-0.01,0.51-0.02,1.02,0.01,1.67c-0.02,0-0.03,0-0.05,0c-0.73-0.03-1.48-0.02-2.22-0.01l-0.36,0.01
			c-1.15,0.02-1.86,0.74-1.86,1.89l0,4.69c-0.01,1.18,0.73,1.93,1.92,1.94l0.44,0.01c0.68,0.01,1.36,0.02,2.13,0
			c-0.01,0.45-0.01,0.9-0.01,1.35c0,0.36,0.01,0.72,0,1.09c-0.01,0.65,0.17,1.16,0.52,1.52c0.36,0.36,0.86,0.54,1.49,0.54
			c0,0,0.01,0,0.01,0c1.5-0.01,3-0.01,4.49,0c0.01,0,0.01,0,0.02,0c0.63,0,1.13-0.18,1.48-0.53c0.36-0.36,0.53-0.88,0.52-1.53
			c-0.01-0.32,0-0.63,0-0.95c0.01-0.46,0.01-0.92-0.01-1.49c0,0,0,0,0.01,0c0.72,0.03,1.45,0.02,2.17,0.01l0.41-0.01
			c1.19-0.02,1.92-0.76,1.91-1.95l0-2.95c0-0.54-0.01-1.08,0-1.62C34.3,21.57,34.12,21.07,33.78,20.72z M24.65,27.43
			c-0.02-1.48-0.63-2.09-2.1-2.1c-0.69-0.01-1.38-0.01-2.09-0.01h-0.2v-1.75h0.16c0.74,0,1.46,0.01,2.19-0.01
			c1.43-0.02,2.02-0.62,2.04-2.06c0.01-0.68,0.01-1.37,0.01-2.09v-0.25h1.75v0.22c0,0.72-0.01,1.42,0.01,2.12
			c0.03,1.44,0.62,2.03,2.05,2.06c0.71,0.02,1.41,0.02,2.13,0.01h0.22v1.75h-0.18c-0.71,0-1.42,0-2.13,0.01
			c-1.47,0.02-2.08,0.63-2.1,2.11c-0.01,0.69-0.01,1.38-0.01,2.09v0.21h-1.75v-0.11C24.66,28.89,24.66,28.16,24.65,27.43z"/>
	</g>
</g>
</svg>
