<svg width="150" height="150" xmlns="http://www.w3.org/2000/svg" xml:space="preserve" version="1.1">
 <g>
  <title>Layer 1</title>
  <g id="svg_3">
   <path id="svg_4" fill="#2F54A2" d="m131.69872,48.63653c0.05,-0.66 0.1,-1.34 0.01,-1.95c0.05,-8.42 -0.04,-20.33 -0.04,-22.98c-0.03,-8.73 -4.52,-13.28 -13.16,-13.28c-31.25,-0.01 -44.66,-0.01 -75.91,0c-8.73,0 -13.14,4.44 -13.15,13.24c-0.01,17.39 0,34.77 0,52.16c0,17.5 -0.02,20.86 0.04,38.36c0,0.54 -0.07,1.17 -0.11,1.79c-0.56,0 -1.12,0 -1.68,0c-1.1,0 -2.21,-0.05 -3.3,0.09c-3.53,0.46 -5.73,2.8 -6.06,6.34c-0.96,10.31 5.26,17.17 15.62,17.17c16.72,0.01 33.45,0 50.17,0c16.5,0 15.16,0 31.67,0c10.4,0 15.87,-5.45 15.87,-15.84c0.01,-31.52 0.01,-39.62 -0.03,-71.13c0.03,-1.08 0.05,-2.44 0.06,-3.97zm-27.34,86.44c-29.48,0.01 -41.11,0.02 -70.59,0c-7.28,-0.01 -10.94,-3.86 -10.9,-11.03c0.02,-2.72 1.05,-3.66 3.74,-3.64c11.99,0.09 23.98,0.04 35.97,0.04c18.26,0 18.68,0 36.93,0c4.63,0 4.37,0.04 4.85,4.48c0.35,3.29 1.5,6.49 2.36,10.05c-0.62,0.02 -1.49,0.1 -2.36,0.1zm13.81,-0.04c-5.33,0.05 -9.2,-4.18 -9.34,-10.22c-0.15,-7.05 -2.02,-8.85 -9.2,-8.85c-27.8,0 -37.76,0 -65.56,0c-0.03,-0.65 -0.11,-1.3 -0.11,-1.87c0.04,-34.99 0.03,-55.85 0.04,-90.85c0,-5.86 2.4,-8.32 8.16,-8.32c31.47,-0.02 45.1,-0.02 76.57,0c5.84,0 8.3,2.44 8.35,8.17c0.03,2.79 -0.05,14.78 -0.02,23.34c-0.16,0.76 -0.06,1.69 0.01,2.53c0.01,1.48 0.03,2.79 0.05,3.83c-0.05,31.82 -0.03,40.23 -0.05,72.05c0.01,5.97 -3.7,10.14 -8.9,10.19z" class="st1"/>
   <path id="svg_5" fill="#2F54A2" d="m51.16872,84.75653c0.6,0.34 1.5,0.18 2.27,0.18c24.43,0.01 31.02,0.01 55.45,0c0.44,0 1,0.17 1.3,-0.04c0.13,-0.09 0.26,-0.18 0.39,-0.27c1.46,-1.05 1.35,-3.32 -0.26,-4.1c-0.01,-0.01 -0.02,-0.01 -0.03,-0.02c-0.63,-0.3 -1.51,-0.06 -2.28,-0.06c-12,0 -6.15,0 -18.14,0c-11.99,0 -23.99,0 -35.99,0c-0.88,0 -1.91,-0.24 -2.6,0.14c-0.82,0.45 -1.6,1.04 -1.59,2.09c0,0.57 0.72,1.65 1.48,2.08z" class="st1"/>
   <path id="svg_6" fill="#2F54A2" d="m111.40872,101.26653c-0.83,-0.39 -1.94,-0.22 -2.92,-0.22c-12,-0.01 -6.15,-0.01 -18.14,-0.01c-12.11,0 -24.21,0 -36.32,0c-0.88,0 -1.89,-0.23 -2.61,0.12c-0.85,0.43 -1.45,1.39 -1.47,2.13c-0.02,0.73 0.55,1.67 1.39,2.12c0.7,0.37 1.72,0.13 2.6,0.13c24.1,0 30.36,0 54.46,0c0.99,0 2.09,0.18 2.93,-0.19c0.77,-0.34 1.71,-1.31 1.72,-2.02c0.02,-0.7 -0.89,-1.71 -1.64,-2.06z" class="st1"/>
   <path id="svg_7" fill="#2F54A2" d="m109.36872,39.33653c-12.62,-0.01 -43.38,-0.01 -56,0c-1.64,0 -3.68,-0.2 -3.68,2.17c0,2.54 2.14,2.34 3.89,2.34c6.15,0.02 48.27,0.01 54.42,0.01c6.37,0 -5.11,0 1.25,0c1.78,0 3.91,0.11 3.86,-2.39c-0.04,-2.31 -2.09,-2.13 -3.74,-2.13z" class="st1"/>
   <path id="svg_8" fill="#2F54A2" d="m108.01872,64.39653c6.37,0 -6.51,0.01 -0.14,0c1.78,0 3.72,0.1 3.72,-2.38c0,-1.74 -2.35,-2.07 -3.64,-2.09c-12.62,-0.16 -41.99,-0.09 -54.61,-0.1c-1.71,0 -3.62,-0.01 -3.67,2.25c-0.05,2.3 1.88,2.32 3.58,2.32c6.27,0 48.5,0 54.76,0z" class="st1"/>
  </g>
  <g id="svg_9">
   <g id="svg_10">
    <path id="svg_11" fill="#3EBBD0" d="m372.33,327.83c-5.31,0 -10.62,0.04 -15.93,-0.03c-1.44,-0.02 -2.04,0.43 -2.54,1.84c-3.01,8.4 -9.79,13.31 -18.08,13.28c-8.15,-0.02 -15.02,-4.95 -17.88,-13.16c-0.61,-1.77 -1.5,-1.97 -3.03,-1.96c-10.25,0.04 -20.5,0 -30.75,0.04c-1.99,0.01 -3.76,-0.32 -4.67,-2.31c-0.93,-2.02 0.06,-3.55 1.41,-5.01c10.86,-11.81 15.85,-25.83 15.9,-41.79c0.02,-6.04 -0.22,-12.2 0.85,-18.09c2.59,-14.2 11.14,-23.87 24.51,-29.2c1.75,-0.7 2.54,-1.48 2.39,-3.41c-0.13,-1.65 -0.04,-3.37 0.24,-5c0.93,-5.4 5.57,-9.25 11.01,-9.28c5.55,-0.03 10.22,3.89 11.2,9.4c0.02,0.09 0.06,0.19 0.05,0.27c-1.16,5.95 2.57,7.77 7.18,10.23c13.6,7.25 20.3,19.13 20.78,34.59c0.25,8.08 0.27,16.24 1.46,24.2c1.59,10.65 6.84,19.81 14.1,27.76c1.37,1.5 2.66,3.01 1.75,5.19c-0.96,2.3 -2.99,2.46 -5.15,2.44c-4.92,-0.04 -9.86,0 -14.8,0zm-81,-7.95c29.86,0 59.27,0 88.95,0c-0.45,-0.7 -0.69,-1.09 -0.95,-1.47c-6.32,-9.24 -10.43,-19.37 -11.44,-30.53c-0.62,-6.84 -0.25,-13.77 -0.59,-20.65c-0.67,-13.61 -7.44,-23.22 -19.9,-28.52c-11.56,-4.91 -25.02,-1.88 -34,7.22c-6.05,6.13 -8.91,13.57 -9.1,22.16c-0.17,7.72 -0.05,15.49 -1.01,23.13c-1.3,10.39 -5.63,19.79 -11.96,28.66zm54.82,8.17c-6.98,0 -13.77,0 -20.62,0c1.65,4.58 5.54,7.25 10.32,7.24c4.79,0 8.69,-2.68 10.3,-7.24zm-6.57,-99.25c-0.16,-2.55 0.93,-5.29 -1.77,-6.72c-1.08,-0.57 -3.07,-0.52 -4.09,0.12c-2.5,1.56 -1.59,4.17 -1.4,6.6c2.39,0 4.6,0 7.26,0z" class="st2"/>
    <path id="svg_12" fill="#3EBBD0" d="m279.09,265.2c0.84,-14.09 6.12,-26.37 15.96,-36.68c1.99,-2.09 4.18,-2.33 5.87,-0.74c1.66,1.55 1.6,3.84 -0.35,5.9c-8.89,9.39 -13.52,20.53 -13.89,33.46c-0.09,3.05 -1.75,4.81 -4.04,4.66c-2.3,-0.15 -3.56,-1.95 -3.55,-5.08c0.01,-0.46 0,-0.93 0,-1.52z" class="st2"/>
    <path id="svg_13" fill="#3EBBD0" d="m392.57,265.6c0.14,4.1 -0.96,6.04 -3.51,6.21c-2.54,0.17 -3.93,-1.73 -4.11,-5.77c-0.54,-12.1 -4.9,-22.59 -13.07,-31.52c-0.38,-0.41 -0.78,-0.8 -1.13,-1.23c-1.54,-1.88 -1.52,-4.05 0.02,-5.5c1.56,-1.46 3.93,-1.54 5.45,0.36c3.41,4.27 6.96,8.52 9.69,13.22c4.29,7.4 6.35,15.62 6.66,24.23z" class="st2"/>
   </g>
  </g>
  <path id="svg_14" fill="#1E2648" d="m93.96,691.16c-0.96,0 -1.92,-0.36 -2.65,-1.09l-47.04,-46.71c-0.17,-0.17 -0.31,-0.35 -0.44,-0.53c-6.81,-6.16 -10.69,-14.79 -10.69,-23.83c0,-17.81 14.49,-32.3 32.3,-32.3c12.35,0 23.1,6.96 28.53,17.17c5.43,-10.2 16.18,-17.17 28.53,-17.17c17.81,0 32.3,14.49 32.3,32.3c0,9.05 -3.89,17.69 -10.7,23.85c-0.12,0.18 -0.27,0.35 -0.43,0.51l-47.04,46.71c-0.75,0.72 -1.71,1.09 -2.67,1.09zm-43.7,-52.47l43.7,43.4l43.74,-43.44c0.19,-0.33 0.44,-0.62 0.75,-0.88c5.59,-4.76 8.8,-11.61 8.8,-18.77c0,-13.65 -11.11,-24.77 -24.76,-24.77s-24.76,11.12 -24.76,24.77c0,2.08 -1.69,3.76 -3.77,3.76s-3.77,-1.68 -3.77,-3.76c0,-13.65 -11.11,-24.77 -24.76,-24.77s-24.76,11.11 -24.76,24.76c0,7.16 3.21,14.01 8.8,18.77c0.32,0.26 0.58,0.58 0.79,0.93z" class="st3"/>
  <g id="svg_15">
   <g id="svg_16">
    <path id="svg_17" fill="#3EBBD0" d="m343.03,725.19c-17.19,-20.45 -42.38,-32.2 -69.12,-32.23c-0.05,0 -0.08,0 -0.12,0c-26.72,0 -51.92,11.69 -69.15,32.08c-6.95,8.22 -6.95,14.25 0.01,22.25c18.08,20.8 41.31,31.63 69.07,32.2l0.05,0l0.06,0c27.81,-0.59 51.07,-11.45 69.12,-32.29c6.77,-7.83 6.8,-14 0.08,-22.01zm-37.2,11.02c-0.02,17.63 -14.39,31.99 -32.03,32.02c-0.01,0 -0.01,0 -0.02,0c-17.63,0 -32.03,-14.33 -32.08,-31.97c-0.04,-8.64 3.3,-16.74 9.35,-22.79c6.04,-6.04 14.1,-9.37 22.72,-9.37c0.04,0 0.06,0 0.1,0c17.65,0.05 31.98,14.45 31.96,32.11zm-68.5,23.22c-9.72,-5.04 -18.17,-11.93 -25.18,-20.55c-1.99,-2.44 -1.99,-3 -0.01,-5.44c7.01,-8.61 15.48,-15.51 25.21,-20.55c-8.99,14.52 -9,32.05 -0.02,46.54zm72.44,-46.78c5.72,2.86 10.84,6.33 15.51,10.48c3.2,2.86 6.21,6.16 9.11,9.35l1.66,1.81c1.11,1.22 1.14,2.31 0.08,3.65c-7.34,9.22 -16.11,16.45 -26.2,21.59c9.57,-15.46 9.52,-31.18 -0.16,-46.88z" class="st2"/>
    <path id="svg_18" fill="#3EBBD0" d="m273.74,718.62c0,0 -0.01,0 -0.02,0c-4.67,0.01 -9.09,1.9 -12.42,5.31c-3.34,3.4 -5.12,7.82 -5.05,12.47c0.16,9.55 8.01,17.3 17.51,17.3c0.02,0 0.04,0 0.06,0c9.55,-0.05 17.39,-7.86 17.48,-17.4c0.05,-4.64 -1.76,-9.05 -5.11,-12.42c-3.36,-3.39 -7.78,-5.26 -12.45,-5.26zm6.4,17.48c0.01,1.69 -0.65,3.31 -1.87,4.54c-2.44,2.44 -6.58,2.44 -9.02,0c-1.22,-1.23 -1.89,-2.84 -1.87,-4.53c0.02,-3.38 2.89,-6.28 6.26,-6.33c0.04,0 0.06,0 0.1,0c1.68,0 3.26,0.65 4.48,1.84c1.23,1.21 1.91,2.79 1.92,4.48z" class="st2"/>
   </g>
  </g>
  <path id="svg_19" fill="#0673B9" d="m221.06,683.56c-1.28,0.16 -2.39,-0.6 -3.09,-1.61l-26.44,-38.01c-1.19,-1.71 -0.77,-4.06 0.94,-5.25c1.71,-1.19 4.05,-0.77 5.24,0.94l23.42,33.66l72.96,-100.52c1.22,-1.68 3.57,-2.07 5.26,-0.84c1.68,1.23 2.06,3.58 0.83,5.26l-76.07,104.82c-0.71,0.98 -1.84,1.55 -3.05,1.55z" class="st0"/>
  <g id="svg_20">
   <path id="svg_21" fill="#2F54A2" d="m346.04,497.45c0,-2.37 -0.06,-4.28 0.02,-6.18c0.11,-2.64 1.72,-4.34 3.97,-4.33c2.25,0.01 3.77,1.69 3.88,4.39c0.07,1.9 0.01,3.8 0.01,5.91c19.35,0 38.45,0 58.02,0c0,-1.61 -0.01,-3.2 0,-4.8c0.03,-3.62 1.34,-5.47 3.88,-5.5c2.54,-0.03 3.98,1.91 4.01,5.41c0.01,1.54 0,3.08 0,5.09c2.75,0 5.36,-0.04 7.95,0.01c2.18,0.05 4.4,-0.01 6.53,0.36c6.83,1.18 11.79,6.85 11.81,13.77c0.07,29.27 0.09,58.54 -0.01,87.81c-0.03,7.66 -6.39,13.94 -14.07,13.96c-32.74,0.08 -65.47,0.08 -98.21,0c-7.79,-0.02 -14.09,-6.4 -14.11,-14.22c-0.07,-29.09 -0.07,-58.18 -0.01,-87.26c0.02,-8.1 6.24,-14.18 14.51,-14.41c3.82,-0.09 7.63,-0.01 11.82,-0.01zm-18.3,39.62c-0.06,1.12 -0.15,2.01 -0.15,2.9c-0.01,19.15 -0.01,38.31 0,57.46c0,5.71 2.41,8.07 8.22,8.07c31.38,0.01 62.76,0.01 94.13,0c5.96,0 8.31,-2.33 8.31,-8.26c0.01,-19.06 0.01,-38.13 0,-57.19c0,-0.96 -0.1,-1.93 -0.15,-2.98c-36.86,0 -73.42,0 -110.36,0zm0.05,-8.21c36.86,0 73.54,0 110.39,0c0,-6.04 0.13,-11.86 -0.06,-17.67c-0.08,-2.68 -1.8,-5.06 -4.37,-5.32c-4.54,-0.47 -9.16,-0.13 -13.96,-0.13c0,3.1 0.11,6.01 -0.03,8.91c-0.12,2.4 -1.97,4.13 -4.06,3.93c-2.32,-0.23 -3.61,-1.64 -3.72,-3.97c-0.09,-2 -0.19,-4.02 -0.01,-6.01c0.21,-2.46 -0.58,-3.28 -3.16,-3.25c-12.4,0.13 -24.8,0.06 -37.2,0.06c-5.11,0 -10.21,0.06 -15.32,-0.03c-1.76,-0.03 -2.49,0.53 -2.39,2.34c0.11,2 0.05,4.01 0.01,6.02c-0.07,3.06 -1.6,4.92 -3.97,4.88c-2.36,-0.04 -3.86,-1.93 -3.9,-4.99c-0.04,-2.62 -0.01,-5.24 -0.01,-8.02c-4.68,0 -9.04,-0.25 -13.35,0.09c-2.65,0.21 -4.68,2.27 -4.8,4.91c-0.28,6.05 -0.09,12.13 -0.09,18.25z" class="st1"/>
  </g>
 </g>

</svg>