<?xml version="1.0" encoding="utf-8"?>
<!-- Generator: Adobe Illustrator 26.0.3, SVG Export Plug-In . SVG Version: 6.00 Build 0)  -->
<svg version="1.1" id="Capa_1" xmlns="http://www.w3.org/2000/svg" xmlns:xlink="http://www.w3.org/1999/xlink" x="0px" y="0px"
	 viewBox="0 0 17.21 15.72" style="enable-background:new 0 0 17.21 15.72;" xml:space="preserve">
<style type="text/css">
	.st0{fill:#5BD4E8;}
	.st1{fill:#FFFFFF;}
	.st2{fill:#223976;}
	.st3{fill:#868686;}
	.st4{fill:#0C204C;}
	.st5{fill:#F0FFFF;}
	.st6{fill:#0072B8;}
	.st7{fill:#2852AF;}
	.st8{fill:#2EC1D3;}
	.st9{fill:#EBBCBE;}
	.st10{fill:#E9FFED;}
	.st11{fill:#034C11;}
	.st12{fill:#FFF0F1;}
	.st13{fill:#6B030F;}
</style>
<g>
	<path class="st4" d="M8.61,14.68c-0.13,0-0.25-0.05-0.35-0.14l-6.14-6.1C2.1,8.42,2.08,8.4,2.06,8.37c-0.89-0.8-1.4-1.93-1.4-3.11
		c0-2.32,1.89-4.22,4.22-4.22c1.61,0,3.02,0.91,3.72,2.24c0.71-1.33,2.11-2.24,3.72-2.24c2.32,0,4.22,1.89,4.22,4.22
		c0,1.18-0.51,2.31-1.4,3.11c-0.02,0.02-0.03,0.05-0.06,0.07l-6.14,6.1C8.86,14.63,8.73,14.68,8.61,14.68z M2.9,7.83l5.71,5.67
		l5.71-5.67c0.03-0.04,0.06-0.08,0.1-0.12c0.73-0.62,1.15-1.51,1.15-2.45c0-1.78-1.45-3.23-3.23-3.23S9.1,3.48,9.1,5.26
		c0,0.27-0.22,0.49-0.49,0.49c-0.27,0-0.49-0.22-0.49-0.49c0-1.78-1.45-3.23-3.23-3.23S1.65,3.48,1.65,5.26
		c0,0.94,0.42,1.83,1.15,2.45C2.84,7.74,2.87,7.79,2.9,7.83z"/>
</g>
</svg>
