<?xml version="1.0" encoding="utf-8"?>
<!-- Generator: Adobe Illustrator 26.0.3, SVG Export Plug-In . SVG Version: 6.00 Build 0)  -->
<svg version="1.1" id="Capa_1" xmlns="http://www.w3.org/2000/svg" xmlns:xlink="http://www.w3.org/1999/xlink" x="0px" y="0px"
	 viewBox="0 0 48.64 43.93" style="enable-background:new 0 0 48.64 43.93;" xml:space="preserve">
<style type="text/css">
	.st0{fill:#5BD4E8;}
	.st1{fill:#FFFFFF;}
	.st2{fill:#223976;}
	.st3{fill:#868686;}
	.st4{fill:#F0FFFF;}
	.st5{fill:#0C204C;}
	.st6{fill:#0072B8;}
	.st7{fill:#2852AF;}
	.st8{fill:#2EC1D3;}
	.st9{fill:#EBBCBE;}
	.st10{fill:#E9FFED;}
	.st11{fill:#034C11;}
	.st12{fill:#FFF0F1;}
	.st13{fill:#6B030F;}
</style>
<path  class="icon-sidebar" d="M41.99,21.61c0,0.65,0,1,0,1.36c0,5.7,0,11.4,0,17.1c0,1.61-0.43,2.04-2.04,2.04c-3.28,0.01-6.55,0.01-9.83,0
	c-1.48,0-1.94-0.47-1.94-1.94c-0.01-2.49,0-4.98,0-7.47c0-0.35,0-0.7,0-1.12c-2.45,0-4.79,0-7.24,0c-0.02,0.35-0.06,0.7-0.06,1.05
	c-0.01,2.49,0,4.98,0,7.47c0,1.56-0.45,2.02-1.97,2.02c-3.28,0.01-6.55,0.01-9.83,0c-1.49,0-1.95-0.46-1.95-1.93
	c0-5.86,0-11.73,0-17.59c0-0.35,0-0.7,0-1.32c-1.04,0.95-1.88,1.82-2.82,2.53c-0.44,0.33-1.15,0.59-1.66,0.49
	c-1.14-0.24-1.34-1.59-0.41-2.48c1.59-1.51,3.22-2.98,4.83-4.47c5.35-4.92,10.71-9.84,16.06-14.76c1.08-0.99,1.72-1.02,2.71-0.09
	c6.79,6.35,13.58,12.71,20.37,19.08c0.32,0.3,0.76,0.73,0.75,1.09c-0.01,0.51-0.25,1.26-0.63,1.47c-0.43,0.23-1.26,0.17-1.67-0.11
	C43.77,23.4,43.02,22.56,41.99,21.61z M24.6,5.32c-0.2,0.13-0.29,0.17-0.36,0.24c-4.59,4.21-9.18,8.41-13.73,12.65
	c-0.28,0.26-0.45,0.79-0.45,1.2c-0.03,6.29-0.02,12.58-0.02,18.87c0,0.28,0.05,0.56,0.08,0.83c2.66,0,5.22,0,7.85,0
	c0-2.95-0.01-5.83,0-8.7c0-1.2,0.49-1.79,1.59-1.8c3.31-0.03,6.62-0.03,9.93,0c1.12,0.01,1.62,0.6,1.63,1.78
	c0.02,2.26,0,4.52,0,6.78c0,0.64,0,1.29,0,1.96c2.69,0,5.26,0,7.88,0c0.02-0.2,0.06-0.36,0.06-0.51c0-6.39,0.01-12.78-0.02-19.17
	c0-0.39-0.28-0.86-0.58-1.14c-2.37-2.26-4.77-4.49-7.16-6.73C29.08,9.49,26.85,7.42,24.6,5.32z"/>
</svg>
