<svg width="150" height="150" xmlns="http://www.w3.org/2000/svg" xml:space="preserve" version="1.1">

 <g>
  <title>Layer 1</title>
  <g id="svg_1">
   <path id="svg_2" fill="#0673B9" d="m55.66582,73.18056c-14.56,-14.16 -11.38,-33.51 -0.46,-43.61c10.95,-10.14 28.64,-10.11 39.53,-0.01c10.88,10.08 14.16,29.38 -0.48,43.64c0.86,0.42 1.64,0.8 2.42,1.19c19.38,9.63 30.01,25.12 31.32,46.83c0.07,1.24 0.04,2.61 -0.43,3.72c-1,2.31 -2.97,3.34 -5.5,3.03c-2.51,-0.31 -4.13,-2.26 -4.47,-5.05c-0.46,-3.75 -0.64,-7.6 -1.62,-11.22c-5.44,-20.12 -25.15,-33.71 -45.05,-31.29c-22,2.68 -37.89,19.76 -38.52,41.4c-0.11,3.88 -2.09,6.21 -5.29,6.21c-3.31,0 -5.3,-2.43 -5.13,-6.53c0.82,-19.49 9.78,-34.21 26.27,-44.43c2.28,-1.42 4.77,-2.51 7.41,-3.88zm19.19,-40.79c-10.38,0.06 -18.68,8.5 -18.59,18.91c0.09,10.18 8.66,18.58 18.81,18.48c10.37,-0.11 18.67,-8.59 18.57,-18.97c-0.08,-10.23 -8.5,-18.48 -18.79,-18.42z" class="st0"/>
  </g>
  <g id="svg_15">
   <g id="svg_16">
    <path id="svg_17" fill="#3EBBD0" d="m282.03,695.19c-17.19,-20.45 -42.38,-32.2 -69.12,-32.23c-0.05,0 -0.08,0 -0.12,0c-26.72,0 -51.92,11.69 -69.15,32.08c-6.95,8.22 -6.95,14.25 0.01,22.25c18.08,20.8 41.31,31.63 69.07,32.2l0.05,0l0.06,0c27.81,-0.59 51.07,-11.45 69.12,-32.29c6.77,-7.83 6.8,-14 0.08,-22.01zm-37.2,11.02c-0.02,17.63 -14.39,31.99 -32.03,32.02c-0.01,0 -0.01,0 -0.02,0c-17.63,0 -32.03,-14.33 -32.08,-31.97c-0.04,-8.64 3.3,-16.74 9.35,-22.79c6.04,-6.04 14.1,-9.37 22.72,-9.37c0.04,0 0.06,0 0.1,0c17.65,0.05 31.98,14.45 31.96,32.11zm-68.5,23.22c-9.72,-5.04 -18.17,-11.93 -25.18,-20.55c-1.99,-2.44 -1.99,-3 -0.01,-5.44c7.01,-8.61 15.48,-15.51 25.21,-20.55c-8.99,14.52 -9,32.05 -0.02,46.54zm72.44,-46.78c5.72,2.86 10.84,6.33 15.51,10.48c3.2,2.86 6.21,6.16 9.11,9.35l1.66,1.81c1.11,1.22 1.14,2.31 0.08,3.65c-7.34,9.22 -16.11,16.45 -26.2,21.59c9.57,-15.46 9.52,-31.18 -0.16,-46.88z" class="st2"/>
    <path id="svg_18" fill="#3EBBD0" d="m212.74,688.62c0,0 -0.01,0 -0.02,0c-4.67,0.01 -9.09,1.9 -12.42,5.31c-3.34,3.4 -5.12,7.82 -5.05,12.47c0.16,9.55 8.01,17.3 17.51,17.3c0.02,0 0.04,0 0.06,0c9.55,-0.05 17.39,-7.86 17.48,-17.4c0.05,-4.64 -1.76,-9.05 -5.11,-12.42c-3.36,-3.39 -7.78,-5.26 -12.45,-5.26zm6.4,17.48c0.01,1.69 -0.65,3.31 -1.87,4.54c-2.44,2.44 -6.58,2.44 -9.02,0c-1.22,-1.23 -1.89,-2.84 -1.87,-4.53c0.02,-3.38 2.89,-6.28 6.26,-6.33c0.04,0 0.06,0 0.1,0c1.68,0 3.26,0.65 4.48,1.84c1.23,1.21 1.91,2.79 1.92,4.48z" class="st2"/>
   </g>
  </g>
  <path id="svg_19" fill="#0673B9" d="m96.06,544.56c-1.28,0.16 -2.39,-0.6 -3.09,-1.61l-26.44,-38.01c-1.19,-1.71 -0.77,-4.06 0.94,-5.25c1.71,-1.19 4.05,-0.77 5.24,0.94l23.42,33.66l72.96,-100.52c1.22,-1.68 3.57,-2.07 5.26,-0.84c1.68,1.23 2.06,3.58 0.83,5.26l-76.07,104.82c-0.71,0.98 -1.84,1.55 -3.05,1.55z" class="st0"/>
  <g id="svg_20">
   <path id="svg_21" fill="#2F54A2" d="m271.04,431.45c0,-2.37 -0.06,-4.28 0.02,-6.18c0.11,-2.64 1.72,-4.34 3.97,-4.33c2.25,0.01 3.77,1.69 3.88,4.39c0.07,1.9 0.01,3.8 0.01,5.91c19.35,0 38.45,0 58.02,0c0,-1.61 -0.01,-3.2 0,-4.8c0.03,-3.62 1.34,-5.47 3.88,-5.5c2.54,-0.03 3.98,1.91 4.01,5.41c0.01,1.54 0,3.08 0,5.09c2.75,0 5.36,-0.04 7.95,0.01c2.18,0.05 4.4,-0.01 6.53,0.36c6.83,1.18 11.79,6.85 11.81,13.77c0.07,29.27 0.09,58.54 -0.01,87.81c-0.03,7.66 -6.39,13.94 -14.07,13.96c-32.74,0.08 -65.47,0.08 -98.21,0c-7.79,-0.02 -14.09,-6.4 -14.11,-14.22c-0.07,-29.09 -0.07,-58.18 -0.01,-87.26c0.02,-8.1 6.24,-14.18 14.51,-14.41c3.82,-0.09 7.63,-0.01 11.82,-0.01zm-18.3,39.62c-0.06,1.12 -0.15,2.01 -0.15,2.9c-0.01,19.15 -0.01,38.31 0,57.46c0,5.71 2.41,8.07 8.22,8.07c31.38,0.01 62.76,0.01 94.13,0c5.96,0 8.31,-2.33 8.31,-8.26c0.01,-19.06 0.01,-38.13 0,-57.19c0,-0.96 -0.1,-1.93 -0.15,-2.98c-36.86,0 -73.42,0 -110.36,0zm0.05,-8.21c36.86,0 73.54,0 110.39,0c0,-6.04 0.13,-11.86 -0.06,-17.67c-0.08,-2.68 -1.8,-5.06 -4.37,-5.32c-4.54,-0.47 -9.16,-0.13 -13.96,-0.13c0,3.1 0.11,6.01 -0.03,8.91c-0.12,2.4 -1.97,4.13 -4.06,3.93c-2.32,-0.23 -3.61,-1.64 -3.72,-3.97c-0.09,-2 -0.19,-4.02 -0.01,-6.01c0.21,-2.46 -0.58,-3.28 -3.16,-3.25c-12.4,0.13 -24.8,0.06 -37.2,0.06c-5.11,0 -10.21,0.06 -15.32,-0.03c-1.76,-0.03 -2.49,0.53 -2.39,2.34c0.11,2 0.05,4.01 0.01,6.02c-0.07,3.06 -1.6,4.92 -3.97,4.88c-2.36,-0.04 -3.86,-1.93 -3.9,-4.99c-0.04,-2.62 -0.01,-5.24 -0.01,-8.02c-4.68,0 -9.04,-0.25 -13.35,0.09c-2.65,0.21 -4.68,2.27 -4.8,4.91c-0.28,6.05 -0.09,12.13 -0.09,18.25z" class="st1"/>
  </g>
 </g>
</svg>