<?xml version="1.0" encoding="utf-8"?>
<!-- Generator: Adobe Illustrator 26.0.3, SVG Export Plug-In . SVG Version: 6.00 Build 0)  -->
<svg version="1.1" id="Capa_1" xmlns="http://www.w3.org/2000/svg" xmlns:xlink="http://www.w3.org/1999/xlink" x="0px" y="0px"
	 viewBox="0 0 137.35 135.78" style="enable-background:new 0 0 137.35 135.78;" xml:space="preserve">
<style type="text/css">
	.st0{fill:#213974;}
	.st1{fill:none;stroke:#FFED00;stroke-width:2.8346;stroke-miterlimit:10;}
	.st2{fill:none;stroke:#F9B233;stroke-width:1.4173;stroke-miterlimit:10;}
	.st3{clip-path:url(#SVGID_00000068664658429763669480000003306845439071829940_);fill:#FFFFFF;}
	.st4{clip-path:url(#SVGID_00000068664658429763669480000003306845439071829940_);}
	.st5{fill:#36A9E1;}
	.st6{fill:#432918;}
	.st7{fill:#1D71B8;}
	.st8{fill:#F8CCAA;}
	.st9{fill:#F2BC97;}
	.st10{clip-path:url(#SVGID_00000036932204839362439290000010915953657973154184_);fill:#FFFFFF;}
	.st11{clip-path:url(#SVGID_00000036932204839362439290000010915953657973154184_);}
	.st12{fill:#DADADA;}
	.st13{fill:#EDEDED;}
	.st14{clip-path:url(#SVGID_00000177483109341627160530000001015080523374336656_);fill:#FFFFFF;}
	.st15{clip-path:url(#SVGID_00000177483109341627160530000001015080523374336656_);}
	.st16{clip-path:url(#SVGID_00000031904970465537758010000003167208652233832108_);fill:#FFFFFF;}
	.st17{clip-path:url(#SVGID_00000031904970465537758010000003167208652233832108_);}
</style>
<g>
	<defs>
		<circle id="SVGID_00000048493550981614609980000002517261933993304212_" cx="68.67" cy="68.67" r="68.67"/>
	</defs>
	<clipPath id="SVGID_00000036222899407621204350000012494951164941158042_">
		<use xlink:href="#SVGID_00000048493550981614609980000002517261933993304212_"  style="overflow:visible;"/>
	</clipPath>
	
		<rect x="-34.96" y="-35.3" style="clip-path:url(#SVGID_00000036222899407621204350000012494951164941158042_);fill:#FFFFFF;" width="194.23" height="194.23"/>
	<g style="clip-path:url(#SVGID_00000036222899407621204350000012494951164941158042_);">
		<g id="XMLID_00000095340710106010106330000008828824739601628054_">
			<g>
				<path class="st5" d="M101.57,143.13H35.78H20.14v-33.26c0-5.18,3.56-9.67,8.62-10.82c2.67-0.62,5.77-1.33,9.16-2.18
					c1.77-0.44,3.59-0.9,5.46-1.38c1.28-0.33,2.46-0.67,3.54-0.97v20.72h8.72l13.03,14.11l0.03,0.03l13.03-14.13h8.72V94.5
					c1.08,0.31,2.26,0.64,3.54,0.97c1.74,0.46,3.44,0.87,5.08,1.31c3.51,0.85,6.77,1.62,9.54,2.26c5.05,1.15,8.62,5.64,8.62,10.82
					v33.26H101.57z"/>
				<path class="st6" d="M99.05,49.95v46.83c-1.64-0.44-3.33-0.85-5.08-1.31c-1.28-0.33-2.46-0.67-3.54-0.97
					c-6.46-1.9-9.08-3.49-10.13-4.85c-0.74-0.95-0.72-1.8-0.72-2.59c0-1.92,0-5.51,0-6.03c7.57-5.41,8.82-15.59,8.82-15.59v-6.08
					c-26.31,2.44-25.9-20.7-25.9-20.7c-12.64,0-13.57,12.11-13.57,12.11s-5.57-0.33-5.57,6.75c0,6.75,5.57,7.93,5.57,7.93
					s1.26,10.18,8.82,15.59c0,0.51,0,4.1,0,6.03c0,0.8,0.03,1.64-0.72,2.59c-1.05,1.36-3.67,2.95-10.13,4.85
					c-1.08,0.31-2.26,0.64-3.54,0.97c-1.87,0.49-3.69,0.95-5.46,1.38v-0.03V49.95c0-16.9,13.67-30.57,30.57-30.57
					c8.44,0,16.08,3.41,21.62,8.95C95.62,33.84,99.05,41.49,99.05,49.95z"/>
				<path class="st7" d="M90.44,94.5v20.72h-8.72l-13.03,14.13v-0.05l11.62-39.65C81.36,91.01,83.97,92.6,90.44,94.5z"/>
				<path class="st8" d="M79.59,81.04c-2.72,1.95-6.28,3.28-10.9,3.28c-4.64,0-8.18-1.33-10.93-3.28
					c-7.57-5.41-8.82-15.59-8.82-15.59s-5.57-1.18-5.57-7.93c0-7.08,5.57-6.75,5.57-6.75s0.92-12.11,13.57-12.11
					c0,0-0.41,23.13,25.9,20.7v6.08C88.41,65.44,87.15,75.62,79.59,81.04z"/>
				<path class="st9" d="M80.31,89.65L68.69,129.3L57.04,89.65c0.74-0.95,0.72-1.8,0.72-2.59c0-1.92,0-5.51,0-6.03
					c2.74,1.95,6.28,3.28,10.93,3.28c4.62,0,8.18-1.33,10.9-3.28c0,0.51,0,4.1,0,6.03C79.59,87.86,79.56,88.7,80.31,89.65z"/>
				<path class="st7" d="M68.69,129.3l-0.03,0.03l-13.03-14.11h-8.72V94.5c6.46-1.9,9.08-3.49,10.13-4.85L68.69,129.3z"/>
			</g>
		</g>
	</g>
</g>
</svg>
