<?xml version="1.0" encoding="utf-8"?>
<!-- Generator: Adobe Illustrator 26.0.3, SVG Export Plug-In . SVG Version: 6.00 Build 0)  -->
<svg version="1.1" id="Capa_1" xmlns="http://www.w3.org/2000/svg" xmlns:xlink="http://www.w3.org/1999/xlink" x="0px" y="0px"
	 viewBox="0 0 137.35 137.35" style="enable-background:new 0 0 137.35 137.35;" xml:space="preserve">
<style type="text/css">
	.st0{fill:#213974;}
	.st1{fill:none;stroke:#FFED00;stroke-width:2.8346;stroke-miterlimit:10;}
	.st2{fill:none;stroke:#F9B233;stroke-width:1.4173;stroke-miterlimit:10;}
	.st3{clip-path:url(#SVGID_00000119815691828544344560000013314810746112666024_);fill:#FFFFFF;}
	.st4{clip-path:url(#SVGID_00000119815691828544344560000013314810746112666024_);}
	.st5{fill:#36A9E1;}
	.st6{fill:#432918;}
	.st7{fill:#1D71B8;}
	.st8{fill:#F8CCAA;}
	.st9{fill:#F2BC97;}
	.st10{clip-path:url(#SVGID_00000170984798864155273610000016792792004309669566_);fill:#FFFFFF;}
	.st11{clip-path:url(#SVGID_00000170984798864155273610000016792792004309669566_);}
	.st12{fill:#DADADA;}
	.st13{fill:#EDEDED;}
	.st14{clip-path:url(#SVGID_00000030458793892777222470000004144908473645665688_);fill:#FFFFFF;}
	.st15{clip-path:url(#SVGID_00000030458793892777222470000004144908473645665688_);}
	.st16{clip-path:url(#SVGID_00000151545469997405148400000002136966031084171450_);fill:#FFFFFF;}
	.st17{clip-path:url(#SVGID_00000151545469997405148400000002136966031084171450_);}
</style>
<g>
	<defs>
		<circle id="SVGID_00000176728380438319154390000009283194452627026350_" cx="68.67" cy="68.67" r="68.67"/>
	</defs>
	<clipPath id="SVGID_00000072278285991215210700000003494397823900453787_">
		<use xlink:href="#SVGID_00000176728380438319154390000009283194452627026350_"  style="overflow:visible;"/>
	</clipPath>
	
		<rect x="-34.96" y="-35.3" style="clip-path:url(#SVGID_00000072278285991215210700000003494397823900453787_);fill:#FFFFFF;" width="194.23" height="194.23"/>
	<g style="clip-path:url(#SVGID_00000072278285991215210700000003494397823900453787_);">
		<g id="XMLID_00000124870460496613044060000006469116896567472033_">
			<g>
				<path class="st12" d="M120,113.51v28.16H74.04l-1.95-31.14l2.77-6.8l2.39,2.82c7.41-2.95,14.67-14.08,14.67-14.08
					c3.03,1.46,9.03,3.03,14.7,4.31C114.44,98.55,120,105.5,120,113.51z"/>
				<path class="st8" d="M93.51,50.1c0.46,0.9,0.82,2.15,0.82,4.03c0,6.82-5.64,8-5.64,8s-0.97,7.87-6.33,13.52
					c-2.98,3.15-7.34,5.62-13.67,5.62s-10.69-2.46-13.67-5.62c-5.36-5.64-6.33-13.52-6.33-13.52s-5.64-1.18-5.64-8
					c0-1.87,0.36-3.13,0.82-4.03c8.05,0,5.28-17.06,13.46-17.06c6.23,0,5.46,1.77,11.36,1.77h0.03c5.9,0,5.13-1.77,11.39-1.77
					C88.25,33.05,85.46,50.1,93.51,50.1z"/>
				<path class="st6" d="M68.71,15.58c35.37,0,24.8,34.52,24.8,34.52c-8.05,0-5.26-17.06-13.41-17.06c-6.26,0-5.49,1.77-11.39,1.77
					h-0.03c-5.9,0-5.13-1.77-11.36-1.77c-8.18,0-5.41,17.06-13.46,17.06c0,0-5.85-21.03,9.23-27.26c0,0,3.03-7.26,15.59-7.26H68.71z
					"/>
				<path class="st13" d="M91.92,92.47c0,0-7.26,11.13-14.67,14.08l-2.39-2.82l-6.18-7.34v-0.03c9.18-0.03,15.64-9.44,15.64-9.44
					C85.87,88.76,88.36,90.78,91.92,92.47z"/>
				<path class="st9" d="M82.35,82.96c0,0.92,0.64,2.39,1.97,3.98c0,0-6.46,9.41-15.64,9.44h-0.03c-9.18-0.03-15.64-9.44-15.64-9.44
					c1.36-1.59,2-3.05,2-3.98c0-1.95,0-7.31,0-7.31c2.98,3.15,7.34,5.62,13.67,5.62s10.69-2.46,13.67-5.62
					C82.35,75.65,82.35,81.01,82.35,82.96z"/>
				<polygon class="st7" points="68.68,96.4 74.87,103.73 72.1,110.53 68.68,110.53 68.66,110.53 65.25,110.53 62.48,103.73 				"/>
				<polygon class="st7" points="72.1,110.53 74.04,141.67 63.3,141.67 65.25,110.53 68.66,110.53 68.68,110.53 				"/>
				<path class="st13" d="M68.68,96.4l-6.21,7.34l-2.39,2.82c-7.41-2.95-14.67-14.08-14.67-14.08c3.56-1.69,6.05-3.72,7.59-5.54
					c0,0,6.46,9.41,15.64,9.44L68.68,96.4z"/>
				<path class="st12" d="M62.48,103.73l2.77,6.8l-1.95,31.14H17.34v-28.16c0-8,5.57-14.95,13.39-16.72
					c5.67-1.28,11.67-2.85,14.7-4.31c0,0,7.26,11.13,14.67,14.08L62.48,103.73z"/>
			</g>
		</g>
	</g>
</g>
</svg>
