<?xml version="1.0" encoding="utf-8"?>
<!-- Generator: Adobe Illustrator 26.0.3, SVG Export Plug-In . SVG Version: 6.00 Build 0)  -->
<svg version="1.1" id="Capa_1" xmlns="http://www.w3.org/2000/svg" xmlns:xlink="http://www.w3.org/1999/xlink" x="0px" y="0px"
	 viewBox="0 0 168 115.43" style="enable-background:new 0 0 168 115.43;" xml:space="preserve">
<style type="text/css">
	.st0{fill:#11174D;}
	.st1{clip-path:url(#SVGID_00000142855881941373334600000000205045010288922034_);fill:#1D1D1B;}
	.st2{fill:none;stroke:#E20613;stroke-width:4.252;stroke-miterlimit:10;}
	.st3{fill:none;stroke:#E20613;stroke-width:2.8346;stroke-linecap:round;stroke-linejoin:round;stroke-miterlimit:10;}
	.st4{fill:#E20613;}
	.st5{fill:#33C19C;}
	.st6{fill:#FFFFFF;}
	.st7{fill:none;stroke:#33C19C;stroke-width:2.8346;stroke-linecap:round;stroke-linejoin:round;stroke-miterlimit:10;}
	.st8{clip-path:url(#SVGID_00000170960027545949957700000012645165049370749618_);}
	.st9{fill:none;stroke:#FFFFFF;stroke-width:5.6693;stroke-miterlimit:10;}
	.st10{fill:#223976;}
	.st11{fill:#3BB8D7;}
	.st12{clip-path:url(#SVGID_00000135666473565034590770000000134252273830370946_);fill:#1D1D1B;}
	.st13{clip-path:url(#SVGID_00000048495663475653298180000002576474149807678384_);}
	.st14{fill:#5BD4E8;}
</style>
<path class="st14" d="M164.12,10.07c0.62-1.5,0.59-3.21-0.07-4.68c-0.66-1.49-1.87-2.61-3.41-3.15c-2.96-1.05-6.2,0.39-7.39,3.27
	c-5.52,13.4-15.01,25.08-28.22,34.71c-1.14,0.83-2.31,1.61-3.51,2.34c0.38-3.37,0.45-6.75,0.23-10.04
	c-0.04-7.85-3.4-15.4-9.23-20.71c-5.9-5.38-13.55-7.96-21.53-7.27C76.1,5.84,64.57,19.11,65.32,34.11
	c0.71,14.24,12.07,25.24,27.63,26.77c2.43,0.24,6.02,0.38,10.38-0.07c-10.68,19.57-31.02,33.88-39.6,39.31
	c-0.66,0.42-1.48,0.42-2.14,0c-11.44-7.24-48.59-33.46-46.26-67.11l0.01-0.34c0-4.48,1.77-8.67,5-11.8
	c3.22-3.13,7.48-4.78,11.94-4.65c8.57,0.24,15.73,7.41,15.98,15.98c0.23,8.18-5.67,15.37-13.74,16.71
	c-2.65,0.44-4.65,2.86-4.65,5.74c0,1.77,0.77,3.43,2.13,4.56c1.32,1.11,3.05,1.58,4.73,1.28c14.62-2.58,24.78-16.22,23.13-31.03
	C58.41,16.52,47.98,6.07,35.05,4.61c-8.11-0.92-15.93,1.55-22,6.95c-6,5.33-9.46,12.97-9.5,20.84
	c-3.16,47.39,53.85,79.08,56.28,80.41c0.88,0.48,1.85,0.73,2.82,0.73c0.97,0,1.94-0.24,2.82-0.72c1.21-0.66,28.56-15.76,44.67-40.3
	c4.62,16.08,16.31,38.82,45.62,40.88c1.61,0.1,3.21-0.46,4.39-1.56c1.2-1.12,1.88-2.69,1.88-4.33c0-3.06-2.41-5.64-5.49-5.86
	c-31.06-2.27-36.61-34.99-37.58-44.68c4.59-1.84,8.96-4.26,13.01-7.21C146.95,38.82,157.77,25.47,164.12,10.07z M108.53,47.99
	c-6.44,1.6-11.76,1.43-14.43,1.17c-10.19-1-17.03-7.63-17.03-16.49c0-9.08,7.38-16.46,16.46-16.46c9.08,0,16.46,7.38,16.46,16.53
	l0.01,0.34C110.34,37.99,109.84,43,108.53,47.99z"/>
</svg>
