<?xml version="1.0" encoding="utf-8"?>
<!-- Generator: Adobe Illustrator 26.0.3, SVG Export Plug-In . SVG Version: 6.00 Build 0)  -->
<svg version="1.1" id="Capa_1" xmlns="http://www.w3.org/2000/svg" xmlns:xlink="http://www.w3.org/1999/xlink" x="0px" y="0px"
	 viewBox="0 0 154.29 107.29" style="enable-background:new 0 0 154.29 107.29;" xml:space="preserve">
<style type="text/css">
	.st0{fill:#5BD4E8;}
	.st1{fill:#FFFFFF;}
	.st2{fill:#223976;}
	.st3{fill:#868686;}
	.st4{fill:#F0FFFF;}
	.st5{fill:#0C204C;}
	.st6{fill:#0072B8;}
	.st7{fill:#2852AF;}
	.st8{fill:#2EC1D3;}
	.st9{fill:#EBBCBE;}
	.st10{fill:#E9FFED;}
	.st11{fill:#034C11;}
	.st12{fill:#FFF0F1;}
	.st13{fill:#6B030F;}
</style>
<g>
	<path class="st0" d="M146.3,12.53c0.53-1.29,0.51-2.77-0.06-4.04c-0.57-1.29-1.62-2.25-2.94-2.72c-2.55-0.9-5.35,0.34-6.38,2.82
		c-4.76,11.56-12.96,21.64-24.36,29.96c-0.98,0.72-1.99,1.39-3.03,2.02c0.32-2.91,0.39-5.82,0.2-8.66
		c-0.04-6.78-2.94-13.29-7.96-17.88c-5.09-4.64-11.69-6.87-18.58-6.27C70.32,8.87,60.38,20.32,61.02,33.27
		c0.61,12.29,10.42,21.79,23.85,23.1c2.1,0.21,5.19,0.33,8.96-0.06c-9.22,16.89-26.77,29.24-34.18,33.92
		c-0.57,0.36-1.28,0.36-1.85,0C47.92,84,15.86,61.36,17.87,32.32l0.01-0.29c0-3.86,1.53-7.48,4.31-10.18
		c2.78-2.7,6.46-4.13,10.31-4.02c7.39,0.21,13.58,6.4,13.79,13.79c0.2,7.06-4.9,13.27-11.86,14.43c-2.29,0.38-4.01,2.47-4.01,4.95
		c0,1.52,0.67,2.96,1.84,3.94c1.14,0.96,2.63,1.36,4.09,1.1C48.96,53.8,57.73,42.03,56.3,29.24C55.06,18.09,46.06,9.07,34.9,7.81
		c-7-0.79-13.75,1.34-18.99,5.99C10.73,18.4,7.75,25,7.71,31.79c-2.73,40.9,46.48,68.25,48.57,69.4c0.76,0.42,1.6,0.63,2.44,0.63
		s1.67-0.21,2.43-0.63c1.05-0.57,24.65-13.61,38.55-34.79c3.98,13.88,14.08,33.5,39.37,35.28c1.39,0.09,2.77-0.39,3.79-1.35
		c1.03-0.96,1.63-2.32,1.63-3.74c0-2.64-2.08-4.87-4.74-5.06c-26.81-1.96-31.6-30.2-32.43-38.56c3.96-1.59,7.73-3.67,11.23-6.22
		C131.48,37.33,140.81,25.82,146.3,12.53z M98.31,45.25c-5.56,1.38-10.15,1.23-12.46,1.01c-8.79-0.86-14.7-6.58-14.7-14.23
		c0-7.83,6.37-14.21,14.21-14.21c7.83,0,14.21,6.37,14.21,14.26l0.01,0.3C99.88,36.62,99.45,40.95,98.31,45.25z"/>
</g>
</svg>
