<?xml version="1.0" encoding="utf-8"?>
<!-- Generator: Adobe Illustrator 26.0.3, SVG Export Plug-In . SVG Version: 6.00 Build 0)  -->
<svg version="1.1" id="Capa_1" xmlns="http://www.w3.org/2000/svg" xmlns:xlink="http://www.w3.org/1999/xlink" x="0px" y="0px"
	 viewBox="0 0 39.64 37.71" style="enable-background:new 0 0 39.64 37.71;" xml:space="preserve">
<style type="text/css">
	.st0{fill:#5BD4E8;}
	.st1{fill:#FFFFFF;}
	.st2{fill:#223976;}
	.st3{fill:#868686;}
	.st4{fill:#F0FFFF;}
	.st5{fill:#0C204C;}
	.st6{fill:#0072B8;}
	.st7{fill:#2852AF;}
	.st8{fill:#2EC1D3;}
	.st9{fill:#EBBCBE;}
	.st10{fill:#E9FFED;}
	.st11{fill:#034C11;}
	.st12{fill:#FFF0F1;}
	.st13{fill:#6B030F;}
</style>
<g>
	<path class="st7" d="M9.46,4.05c0-0.67-0.02-1.2,0-1.73C9.5,1.57,9.95,1.09,10.58,1.1c0.63,0,1.06,0.47,1.09,1.23
		c0.02,0.53,0,1.07,0,1.66c5.43,0,10.8,0,16.29,0c0-0.45,0-0.9,0-1.35c0.01-1.02,0.38-1.54,1.09-1.54c0.71-0.01,1.12,0.54,1.13,1.52
		c0,0.43,0,0.87,0,1.43c0.77,0,1.5-0.01,2.23,0c0.61,0.01,1.24,0,1.83,0.1c1.92,0.33,3.31,1.92,3.32,3.87
		c0.02,8.22,0.03,16.44,0,24.66c-0.01,2.15-1.79,3.91-3.95,3.92c-9.19,0.02-18.39,0.02-27.58,0c-2.19-0.01-3.96-1.8-3.96-3.99
		c-0.02-8.17-0.02-16.34,0-24.51c0-2.27,1.75-3.98,4.08-4.05C7.21,4.02,8.29,4.05,9.46,4.05z M4.32,15.17
		c-0.02,0.32-0.04,0.56-0.04,0.81c0,5.38,0,10.76,0,16.14c0,1.6,0.68,2.27,2.31,2.27c8.81,0,17.62,0,26.44,0
		c1.67,0,2.33-0.65,2.33-2.32c0-5.35,0-10.71,0-16.06c0-0.27-0.03-0.54-0.04-0.84C24.96,15.17,14.7,15.17,4.32,15.17z M4.34,12.87
		c10.35,0,20.65,0,31,0c0-1.7,0.04-3.33-0.02-4.96c-0.02-0.75-0.51-1.42-1.23-1.49c-1.27-0.13-2.57-0.04-3.92-0.04
		c0,0.87,0.03,1.69-0.01,2.5c-0.03,0.67-0.55,1.16-1.14,1.1c-0.65-0.06-1.02-0.46-1.05-1.12c-0.03-0.56-0.05-1.13,0-1.69
		c0.06-0.69-0.16-0.92-0.89-0.91c-3.48,0.04-6.96,0.02-10.45,0.02c-1.43,0-2.87,0.02-4.3-0.01c-0.49-0.01-0.7,0.15-0.67,0.66
		c0.03,0.56,0.01,1.13,0,1.69c-0.02,0.86-0.45,1.38-1.12,1.37c-0.66-0.01-1.08-0.54-1.09-1.4c-0.01-0.74,0-1.47,0-2.25
		c-1.31,0-2.54-0.07-3.75,0.03C4.97,6.42,4.4,7,4.36,7.74C4.28,9.44,4.34,11.15,4.34,12.87z"/>
</g>
</svg>
