<?xml version="1.0" encoding="utf-8"?>
<!-- Generator: Adobe Illustrator 26.0.3, SVG Export Plug-In . SVG Version: 6.00 Build 0)  -->
<svg version="1.1" id="Capa_1" xmlns="http://www.w3.org/2000/svg" xmlns:xlink="http://www.w3.org/1999/xlink" x="0px" y="0px"
	 viewBox="0 0 40.07 40.51" style="enable-background:new 0 0 40.07 40.51;" xml:space="preserve">
<style type="text/css">
	.st0{fill:#5BD4E8;}
	.st1{fill:#FFFFFF;}
	.st2{fill:#223976;}
	.st3{fill:#868686;}
	.st4{fill:#F0FFFF;}
	.st5{fill:#0C204C;}
	.st6{fill:#0072B8;}
	.st7{fill:#2852AF;}
	.st8{fill:#2EC1D3;}
	.st9{fill:#EBBCBE;}
	.st10{fill:#E9FFED;}
	.st11{fill:#034C11;}
	.st12{fill:#FFF0F1;}
	.st13{fill:#6B030F;}
</style>
<g>
	<path class="st6" d="M20.04,1.77c-10.19,0-18.49,8.29-18.49,18.49c0,10.19,8.29,18.49,18.49,18.49s18.49-8.29,18.49-18.49
		C38.52,10.06,30.23,1.77,20.04,1.77z M20.04,37.51c-9.51,0-17.26-7.74-17.26-17.26C2.78,10.74,10.52,3,20.04,3
		s17.26,7.74,17.26,17.26C37.29,29.77,29.55,37.51,20.04,37.51z"/>
	<path class="st6" d="M29.77,12.58L16.06,26.35l-5.71-5.76c-0.24-0.24-0.63-0.24-0.87,0c-0.24,0.24-0.24,0.63,0,0.87l6.14,6.2
		c0.12,0.12,0.27,0.18,0.44,0.18c0,0,0,0,0,0c0.16,0,0.32-0.07,0.44-0.18l14.15-14.21c0.24-0.24,0.24-0.63,0-0.87
		C30.4,12.34,30.01,12.34,29.77,12.58z"/>
</g>
</svg>
