<?xml version="1.0" encoding="utf-8"?>
<!-- Generator: Adobe Illustrator 26.0.3, SVG Export Plug-In . SVG Version: 6.00 Build 0)  -->
<svg version="1.1" id="Capa_1" xmlns="http://www.w3.org/2000/svg" xmlns:xlink="http://www.w3.org/1999/xlink" x="0px" y="0px"
	 viewBox="0 0 37.06 38.14" style="enable-background:new 0 0 37.06 38.14;" xml:space="preserve">
<style type="text/css">
	.st0{fill:#5BD4E8;}
	.st1{fill:#FFFFFF;}
	.st2{fill:#223976;}
	.st3{fill:#868686;}
	.st4{fill:#F0FFFF;}
	.st5{fill:#0C204C;}
	.st6{fill:#0072B8;}
	.st7{fill:#2852AF;}
	.st8{fill:#2EC1D3;}
	.st9{fill:#EBBCBE;}
	.st10{fill:#E9FFED;}
	.st11{fill:#034C11;}
	.st12{fill:#FFF0F1;}
	.st13{fill:#6B030F;}
</style>
<g>
	<path class="st3" d="M36.29,19.12c-0.02,9.79-8.02,17.74-17.81,17.72C8.7,36.81,0.74,28.82,0.76,19.02
		C0.79,9.24,8.78,1.29,18.58,1.31C28.36,1.33,36.31,9.32,36.29,19.12z M18.53,34.23c8.36,0,15.16-6.8,15.16-15.16
		c0-8.36-6.8-15.16-15.16-15.16c-8.36,0-15.16,6.8-15.16,15.16C3.37,27.44,10.17,34.23,18.53,34.23z"/>
	<path class="st3" d="M18.94,19.07c1.74,0,3.37,0,5.01,0c1.3,0,1.88,0.39,1.9,1.27c0.02,0.91-0.59,1.34-1.91,1.34
		c-1.97,0-3.95,0.01-5.92,0c-1.22-0.01-1.67-0.45-1.68-1.68c-0.01-2.77,0-5.53,0-8.3c0-0.13,0-0.26,0.01-0.38
		c0.09-0.82,0.6-1.31,1.34-1.29c0.73,0.02,1.22,0.54,1.23,1.38c0.02,2.23,0.01,4.46,0.01,6.69C18.94,18.36,18.94,18.64,18.94,19.07z
		"/>
</g>
</svg>
