<?xml version="1.0" encoding="utf-8"?>
<!-- Generator: Adobe Illustrator 26.0.3, SVG Export Plug-In . SVG Version: 6.00 Build 0)  -->
<svg version="1.1" id="Capa_1" xmlns="http://www.w3.org/2000/svg" xmlns:xlink="http://www.w3.org/1999/xlink" x="0px" y="0px"
	 viewBox="0 0 44.47 27.36" style="enable-background:new 0 0 44.47 27.36;" xml:space="preserve">
<style type="text/css">
	.st0{fill:#5BD4E8;}
	.st1{fill:#FFFFFF;}
	.st2{fill:#223976;}
	.st3{fill:#868686;}
	.st4{fill:#F0FFFF;}
	.st5{fill:#0C204C;}
	.st6{fill:#0072B8;}
	.st7{fill:#2852AF;}
	.st8{fill:#2EC1D3;}
	.st9{fill:#EBBCBE;}
	.st10{fill:#E9FFED;}
	.st11{fill:#034C11;}
	.st12{fill:#FFF0F1;}
	.st13{fill:#6B030F;}
</style>
<g>
	<path class="st8" d="M41.74,10.57C36.9,4.82,29.81,1.51,22.28,1.5c-0.01,0-0.02,0-0.03,0c-7.52,0-14.62,3.29-19.47,9.03
		c-1.96,2.31-1.96,4.01,0,6.27c5.09,5.86,11.63,8.91,19.45,9.07h0.01h0.02c7.83-0.17,14.38-3.22,19.46-9.09
		C43.63,14.57,43.64,12.83,41.74,10.57z M31.27,13.68c-0.01,4.97-4.05,9.01-9.02,9.01c0,0,0,0-0.01,0c-4.97,0-9.02-4.04-9.03-9
		c-0.01-2.43,0.93-4.71,2.63-6.42c1.7-1.7,3.97-2.64,6.4-2.64c0.01,0,0.02,0,0.03,0C27.24,4.65,31.28,8.7,31.27,13.68z M11.98,20.21
		c-2.74-1.42-5.11-3.36-7.09-5.79c-0.56-0.69-0.56-0.84,0-1.53c1.97-2.42,4.36-4.37,7.1-5.79C9.46,11.2,9.46,16.13,11.98,20.21z
		 M32.38,7.04c1.61,0.81,3.05,1.78,4.37,2.95c0.9,0.81,1.75,1.74,2.57,2.63l0.47,0.51c0.31,0.34,0.32,0.65,0.02,1.03
		c-2.07,2.6-4.54,4.63-7.38,6.08C35.12,15.89,35.1,11.46,32.38,7.04z"/>
	<path class="st8" d="M22.23,8.73C22.23,8.73,22.23,8.73,22.23,8.73c-1.32,0-2.57,0.53-3.51,1.49c-0.94,0.96-1.44,2.2-1.42,3.51
		c0.04,2.69,2.26,4.87,4.93,4.87c0.01,0,0.01,0,0.02,0c2.69-0.01,4.9-2.21,4.92-4.9c0.01-1.31-0.5-2.55-1.44-3.5
		C24.79,9.25,23.55,8.73,22.23,8.73z M24.04,13.65c0,0.48-0.18,0.93-0.53,1.28c-0.69,0.69-1.85,0.69-2.54,0
		c-0.34-0.35-0.53-0.8-0.53-1.28c0.01-0.95,0.81-1.77,1.76-1.78c0.01,0,0.02,0,0.03,0c0.47,0,0.92,0.18,1.26,0.52
		C23.84,12.72,24.03,13.17,24.04,13.65z"/>
</g>
</svg>
