<?xml version="1.0" encoding="utf-8"?>
<!-- Generator: Adobe Illustrator 26.0.3, SVG Export Plug-In . SVG Version: 6.00 Build 0)  -->
<svg version="1.1" id="Capa_1" xmlns="http://www.w3.org/2000/svg" xmlns:xlink="http://www.w3.org/1999/xlink" x="0px" y="0px"
	 viewBox="0 0 41.14 41.67" style="enable-background:new 0 0 41.14 41.67;" xml:space="preserve">
<style type="text/css">
	.st0{fill:#5BD4E8;}
	.st1{fill:#FFFFFF;}
	.st2{fill:#223976;}
	.st3{fill:#868686;}
	.st4{fill:#F0FFFF;}
	.st5{fill:#0C204C;}
	.st6{fill:#0072B8;}
	.st7{fill:#2852AF;}
	.st8{fill:#2EC1D3;}
	.st9{fill:#EBBCBE;}
	.st10{fill:#E9FFED;}
	.st11{fill:#034C11;}
	.st12{fill:#FFF0F1;}
	.st13{fill:#6B030F;}
</style>
<g>
	<g>
		<path class="st3" d="M13.85,20.2C8.79,15.28,9.89,8.55,13.69,5.04c3.81-3.52,9.96-3.52,13.75,0c3.78,3.51,4.92,10.22-0.17,15.17
			c0.3,0.15,0.57,0.28,0.84,0.41C34.85,23.97,38.54,29.36,39,36.9c0.03,0.43,0.01,0.91-0.15,1.29c-0.35,0.8-1.03,1.16-1.91,1.05
			c-0.87-0.11-1.43-0.79-1.55-1.75c-0.16-1.3-0.22-2.64-0.56-3.9c-1.89-6.99-8.74-11.72-15.66-10.88
			c-7.65,0.93-13.17,6.87-13.39,14.4c-0.04,1.35-0.73,2.16-1.84,2.16c-1.15,0-1.84-0.84-1.78-2.27c0.28-6.78,3.4-11.9,9.13-15.45
			C12.07,21.06,12.93,20.68,13.85,20.2z M20.52,6.02c-3.61,0.02-6.5,2.96-6.46,6.57c0.03,3.54,3.01,6.46,6.54,6.43
			c3.61-0.04,6.49-2.99,6.46-6.6C27.03,8.86,24.1,6,20.52,6.02z"/>
	</g>
</g>
</svg>
